<?xml version="1.0" standalone="no"?>
<!DOCTYPE svg PUBLIC "-//W3C//DTD SVG 1.1//EN" "http://www.w3.org/Graphics/SVG/1.1/DTD/svg11.dtd" >
<!--
2013-9-30: Created.
-->
<svg>
<metadata>
Created by iconfont
</metadata>
<defs>

<font id="iconfont" horiz-adv-x="1024" >
  <font-face
    font-family="iconfont"
    font-weight="500"
    font-stretch="normal"
    units-per-em="1024"
    ascent="896"
    descent="-128"
  />
    <missing-glyph />
    
    <glyph glyph-name="money" unicode="&#58889;" d="M619.5 599l-107.5-122.9-107.5 122.9h-86l150.5-172h-129v-43h129v-86h-129v-43h129v-129h86v129h129v43h-129v86h129v43h-129l150.5 172zM512 832c-247.4 0-448-200.6-448-448s200.6-448 448-448 448 200.6 448 448-200.6 448-448 448zM512 0c-212.1 0-384 171.9-384 384s171.9 384 384 384 384-171.9 384-384-171.9-384-384-384z"  horiz-adv-x="1024" />

    
    <glyph glyph-name="chuhuodingdan" unicode="&#58880;" d="M767.911 892.616c3.629 2.050 7.969 3.258 12.591 3.258 9.442 0 17.707-5.042 22.249-12.58l236.342-409.004c2.163-3.696 3.44-8.138 3.44-12.878 0-9.367-4.988-17.57-12.452-22.096l-1.362-0.822c-136.281-78.403-272.028-156.939-408.042-235.654-3.678-2.184-8.109-3.474-12.841-3.474-9.575 0-17.915 5.284-22.265 13.095l-235.631 409.062c-2.335 3.737-3.72 8.276-3.72 13.139 0 9.302 5.067 17.42 12.591 21.746l409.099 236.208zM771.206 835.539l-96.167-55.341 63.443-109.256c2.016-3.605 3.204-7.91 3.204-12.492 0-9.511-5.115-17.827-12.745-22.347l-128.343-73.838c-3.729-2.356-8.267-3.754-13.131-3.754-9.332 0-17.463 5.146-21.709 12.755l-62.885 109.16-95.855-55.652 209.965-364.945 96.612 55.919-63.221 109.078c-6.545 12.422-3.027 28.182 9.216 34.816l128.757 73.773c3.634 2.177 8.018 3.464 12.703 3.464 9.371 0 17.539-5.152 21.826-12.777l62.841-109.338 96.211 55.83-210.721 364.945zM584.259 179.467c-7.88 0-15.093-0.579-21.86-1.514l-353.146 610.838c-7.036 14.343-21.532 24.042-38.294 24.042-0.061 0-0.121-0-0.182-0l-127.59 0c-0.106 0.001-0.231 0.001-0.356 0.001-23.654 0-42.83-19.176-42.83-42.83 0-0.001 0-0.001 0-0.002 0.15-23.491 19.228-42.476 42.74-42.476 0.141 0 0.282 0.001 0.423 0.002l103.269-0 338.499-586.975-3.918-4.007c-26.314-26.051-42.608-62.181-42.608-102.116 0-0.162 0-0.325 0.001-0.487-0-38.842 15.271-74.015 39.847-100.817l2.76-2.36c26.408-26.276 62.819-42.519 103.024-42.519 0.094 0 0.187 0 0.281 0 40.161 0.212 76.487 16.517 102.882 42.79l-0.274 0.040c26.001 26.446 42.963 62.82 42.963 102.89 0 27.069-7.747 52.313-20.48 74.084l381.596 220.427c12.816 7.462 21.293 21.136 21.293 36.79 0 7.923-2.171 15.338-5.952 21.684-7.443 12.574-21.14 21.003-36.807 21.003-7.884 0-15.27-2.135-21.61-5.858l-405.971-234.61c-16.849 7.568-36.522 11.977-57.224 11.977-0.167 0-0.334-0-0.502-0.001zM626.733 76.177c10.641-11.13 17.363-25.823 17.363-42.207 0-16.651-6.723-31.833-17.363-43.097v0.534c-11.012-10.791-26.086-17.472-42.721-17.543-16.805 0.002-31.987 6.68-42.227 17.543l-1.781 1.914c-9.843 10.266-15.904 24.225-15.904 39.601 0 0.368 0.003 0.736 0.010 1.103-0.001 16.329 6.010 31.021 17.674 42.152 10.24 10.641 25.377 17.274 42.474 17.274 16.028 0 31.299-6.634 42.474-17.274zM630.65 754.465l-83.434-48.173 49.82-87.53 83.968 48.529-50.31 87.174zM791.329 476.65l-83.834-48.529 49.731-86.817 84.146 48.529-50.042 86.817z"  horiz-adv-x="1113" />

    
    <glyph glyph-name="shujutu" unicode="&#59130;" d="M512.492 383.381m-447.37 0a447.37 447.37 0 1 1 894.74 0 447.37 447.37 0 1 1-894.74 0ZM316.768 439.302h-55.921c-30.885 0-55.921-25.036-55.921-55.921v-181.744c0-30.884 25.036-55.921 55.921-55.921h111.842V383.381c0 30.885-25.036 55.921-55.921 55.921zM540.453 649.006h-55.921c-30.885 0-55.921-25.036-55.921-55.921v-447.37h167.764v447.37c-0.001 30.885-25.037 55.921-55.922 55.921zM764.138 369.401h-55.921c-30.885 0-55.921-25.036-55.921-55.921v-167.764h111.842c30.885 0 55.921 25.037 55.921 55.921V313.479c0 30.885-25.037 55.922-55.921 55.922zM316.768 467.263h-55.921c-30.885 0-55.921-25.036-55.921-55.921v-181.744c0-30.884 25.036-55.921 55.921-55.921h111.842V411.341c0 30.885-25.036 55.922-55.921 55.922zM540.453 676.967h-55.921c-30.885 0-55.921-25.036-55.921-55.921v-447.37h167.764v447.37c-0.001 30.885-25.037 55.921-55.922 55.921zM764.138 397.361h-55.921c-30.885 0-55.921-25.036-55.921-55.921v-167.764h111.842c30.885 0 55.921 25.037 55.921 55.921V341.44c0 30.885-25.037 55.921-55.921 55.921z"  horiz-adv-x="1024" />

    
    <glyph glyph-name="yeji" unicode="&#58923;" d="M988.288 38.4H166.72V860.288a35.776 35.776 0 0 1-71.424 0V38.4h-59.52a35.84 35.84 0 0 1 0-71.488h59.584v-59.264a35.776 35.776 0 0 1 71.488 0v59.264h821.568a35.712 35.712 0 1 1-0.128 71.488zM257.984 205.888a35.968 35.968 0 0 1 25.344 10.432l239.616 239.616 160.896-174.592a35.264 35.264 0 0 1 9.792-28.416 35.52 35.52 0 0 1 50.624 0l269.376 269.44a35.712 35.712 0 0 1 0 50.496 36.608 36.608 0 0 1-50.496 0l-234.624-234.56-167.04 181.184a34.24 34.24 0 0 1-8.704 16.768 35.456 35.456 0 0 1-27.904 9.6c-1.408 0.192-2.688 0.896-4.096 0.896a35.84 35.84 0 0 1-24.512-9.728 35.392 35.392 0 0 1-9.152-15.872L232.768 266.88a35.776 35.776 0 0 1 25.216-60.992z"  horiz-adv-x="1024" />

    
    <glyph glyph-name="yaoqing" unicode="&#58900;" d="M547.216931 168.183422c0 70.433862 32.507937 131.837743 84.881834 171.569664-3.611993 9.029982-7.223986 19.865961-7.223985 30.70194 0 25.283951 19.865961 45.149912 32.507936 59.597884 32.507937 39.731922 52.373898 93.911817 52.373898 153.5097 0 124.613757-88.493827 225.749559-196.853616 225.749559s-198.659612-101.135802-198.659612-225.749559c0-59.597884 19.865961-113.777778 52.373898-153.5097 19.865961-12.641975 32.507937-34.313933 32.507936-59.597884s-14.447972-50.567901-37.925925-61.40388c-21.671958-10.835979-46.955908-12.641975-68.627866-21.671957-21.671958-9.029982-45.149912-19.865961-65.015873-32.507937-19.865961-10.835979-37.925926-25.283951-54.179895-39.731922-7.223986-7.223986-16.253968-14.447972-23.477954-21.671958-1.805996-3.611993-16.253968-23.477954-18.059964-23.477954h1.805996c-10.835979-16.253968-16.253968-32.507937-16.253968-52.373898 0-54.179894 45.149912-97.52381 101.135802-99.329806h390.095238c-37.925926 37.925926-61.40388 90.299824-61.40388 149.897708zM760.324515 318.081129c-83.075838 0-149.897707-66.821869-149.897707-149.897707 0-83.075838 66.821869-149.897707 149.897707-149.897708 83.075838 0 149.897707 66.821869 149.897707 149.897708 0 83.075838-66.821869 149.897707-149.897707 149.897707z m83.075838-158.92769h-63.209877v-63.209876H740.458554v63.209876h-63.209877v39.731923H740.458554v63.209876h39.731922v-63.209876h63.209877v-39.731923z"  horiz-adv-x="1024" />

    
    <glyph glyph-name="shengji" unicode="&#59019;" d="M616.0384-63.761067c-9.557333 0-16.042667 6.417067-15.9744 16.042667v63.8976c0 9.557333 6.3488 15.9744 15.9744 15.9744 9.557333 0 15.9744-6.417067 15.9744-15.9744v-63.8976c0-9.557333-6.417067-16.042667-15.9744-16.042667m-191.829333 0c-9.557333 0-15.9744 6.417067-15.9744 16.042667v63.8976c0 9.557333 6.417067 15.9744 15.9744 15.9744s15.9744-6.417067 15.9744-15.9744v-63.8976c0-9.557333-6.3488-16.042667-15.9744-16.042667m95.914666-63.8976c-9.557333 0-15.9744 6.417067-15.9744 15.9744v127.863467c0 9.557333 6.417067 15.9744 15.9744 15.9744s15.9744-6.417067 15.9744-15.9744v-127.863467c0-9.557333-6.417067-15.9744-15.9744-15.9744m-105.472 268.4928h207.735467c28.808533 31.9488 63.965867 92.706133 63.965867 92.706134 3.140267 3.208533 6.3488 6.3488 12.765866 6.3488s9.557333-3.140267 12.765867-6.3488c19.182933-25.6 32.017067-54.340267 38.365867-86.289067a144.9984 144.9984 0 0 1 99.1232 137.4208c0 60.757333-38.365867 115.029333-95.914667 134.212267a17.544533 17.544533 0 0 0-9.557333 16.042666v22.3232c0 163.0208-86.357333 316.484267-223.778134 402.773334-140.629333-86.289067-223.709867-239.752533-223.709866-402.773334V431.786667a17.6128 17.6128 0 0 0-9.557334-15.9744c-54.408533-22.391467-92.7744-73.5232-92.7744-134.280534 0-60.757333 41.5744-118.237867 99.1232-137.4208 3.208533 28.740267 15.9744 57.5488 35.157334 83.080534 3.208533 3.208533 6.3488 6.417067 12.765866 6.417066s9.557333-3.208533 12.765867-9.557333c15.9744-25.6 38.365867-57.5488 60.757333-83.1488m214.152534-31.9488H408.234667a24.234667 24.234667 0 0 0-12.834134 6.3488 344.064 344.064 0 0 0-57.5488 76.731733c-9.557333-19.114667-15.9744-41.5744-15.9744-63.8976 0-3.208533-3.208533-9.557333-6.417066-12.834133-3.140267-3.140267-9.557333-3.140267-12.765867-3.140267-83.080533 15.9744-140.629333 89.429333-140.629333 172.578134 0 67.106133 38.365867 131.072 102.263466 159.812266v12.765867A504.6272 504.6272 0 0 0 513.706667 891.972267c6.417067 3.208533 12.834133 3.208533 15.9744 0 153.463467-92.706133 249.378133-258.8672 249.378133-434.722134v-12.765866c63.8976-28.740267 105.472-89.4976 105.472-159.812267 0-83.080533-60.757333-156.603733-140.629333-172.578133-3.208533 0-9.6256 0-12.834134 3.140266-3.208533 3.208533-6.3488 6.417067-6.3488 12.834134 0 22.3232-6.417067 47.9232-19.182933 67.106133-16.042667-22.391467-41.5744-60.757333-60.757333-79.872-6.417067-3.2768-12.765867-6.417067-15.9744-6.417067M523.332267 486.058667a60.0064 60.0064 0 1 0 0 119.944533 60.0064 60.0064 0 0 0 0-119.944533m0 159.9488a99.9424 99.9424 0 1 1 0-199.953067 99.9424 99.9424 0 0 1 0 199.953067"  horiz-adv-x="1024" />

    
    <glyph glyph-name="weibiaoti--1" unicode="&#58982;" d="M506.342541 683.8453039999999c-93.348066 0-169.723757-76.375691-169.723756-169.723757s76.375691-169.723757 169.723756-169.723757 169.723757 76.375691 169.723757 169.723757-73.546961 169.723757-169.723757 169.723757z m0-285.701658c-65.060773 0-118.80663 53.745856-118.806629 118.80663 0 65.060773 53.745856 118.80663 118.806629 118.80663 65.060773 0 118.80663-53.745856 118.80663-118.80663 0-67.889503-50.917127-118.80663-118.80663-118.80663zM766.585635 301.966851l59.403315-2.828729s96.176796 113.149171 62.232044 254.585635l-56.574585 25.458563 39.60221 59.403315S823.160221 811.138122 721.325967 833.767956l-70.718232-25.458564-11.314917 62.232044s-124.464088 50.917127-251.756906 0l-16.972376-56.574585-79.20442 19.801105s-67.889503-14.143646-144.265193-181.038674l42.430939-70.718232-67.889503-39.60221s-25.458564-135.779006 59.403315-231.955801h67.889503l-11.314917-76.375691s96.176796-107.491713 234.78453-90.519337l33.944751 42.430939 39.60221-45.259668s104.662983-16.972376 220.640884 90.519337V301.966851z m-36.77348 31.116022v-62.232044c-99.005525-93.348066-189.524862-76.375691-189.524862-76.375691l-33.944752 36.773481-28.287292-36.773481c-118.80663-14.143646-200.839779 79.20442-200.839779 79.20442l8.486187 65.060773h-56.574585c-73.546961 84.861878-50.917127 200.839779-50.917127 200.839779l56.574585 33.944752L198.01105 632.928177c67.889503 141.436464 124.464088 155.58011 124.464088 155.58011l67.889503-16.972375 14.143646 50.917127c107.491713 45.259669 214.983425 0 214.983426 0l8.486188-53.745857 59.403314 22.629835c90.519337-22.629834 132.950276-169.723757 132.950277-169.723757l-33.944752-50.917127 48.088398-22.629835c31.116022-121.635359-53.745856-217.812155-53.745856-217.812154l-50.917127 2.828729zM152.751381 211.44751399999996L2.828729-51.62430900000004l226.298343 36.77348 161.237569-110.320442 76.37569 206.497238c-214.983425 25.458564-313.98895 130.121547-313.98895 130.121547z m260.243094-161.237569L373.392265-65.76795600000003l-124.464088 96.176796-164.066299-22.629834 82.03315 141.436464c-2.828729-2.828729 107.491713-79.20442 246.099447-99.005525zM882.563536 217.10497199999998s-99.005525-104.662983-313.98895-132.950276l62.232044-209.325967 155.58011 87.690608 234.784531-14.143646-138.607735 268.729281z m-101.834254-209.325966l-124.464089-70.718233-36.77348 124.464089c138.607735 16.972376 254.585635 93.348066 254.585635 93.348066l76.375691-155.58011-169.723757 8.486188z"  horiz-adv-x="1024" />

    
    <glyph glyph-name="yunying" unicode="&#58963;" d="M927.232 816.128H548.48v32c0 17.664-14.336 32-32 32s-32-14.336-32-32v-32H95.872C43.008 816.128 0 773.12 0 720.256V208.64c0-52.864 43.008-95.872 95.872-95.872h388.736v-110.336l1.792 0.512-173.056-51.328c-16.896-4.992-26.624-22.784-21.504-39.808 4.992-16.896 22.784-26.624 39.808-21.504L516.48-55.04l177.536-54.784c3.072-0.896 6.272-1.408 9.344-1.408 15.872-0.128 29.44 11.392 31.872 27.136 2.432 15.744-7.168 30.848-22.4 35.328l-164.992 50.944 0.64-0.128V112.64h378.752c52.864 0 95.872 43.008 95.872 95.872V720.256c0.128 52.864-43.008 95.872-95.872 95.872zM516.224 10.368l0.256 0.128 0.256-0.128h-0.512zM959.232 208.64c0-17.536-14.336-32-32-32H95.872c-17.536 0-32 14.336-32 32V720.256c0 17.536 14.336 32 32 32h831.36c17.536 0 32-14.336 32-32V208.64zM637.056 545.92c-12.544 12.544-32.768 12.544-45.184 0L420.608 374.656 244.352 550.912c-12.544 12.16-32.512 11.904-44.8-0.384-12.288-12.288-12.544-32.256-0.384-44.8l198.784-198.784c6.016-6.016 14.208-9.344 22.656-9.344s16.64 3.328 22.656 9.344L614.528 478.08l167.808-167.808c12.544-12.16 32.512-11.904 44.8 0.384s12.544 32.256 0.384 44.8L637.056 545.92z"  horiz-adv-x="1024" />

    
    <glyph glyph-name="yeji1" unicode="&#58915;" d="M266.24-30.720000000000027c0-10.24-5.12-15.36-10.24-20.48-5.12-5.12-15.36-10.24-20.48-10.24H61.44c-10.24 0-15.36 5.12-20.48 10.24-5.12 5.12-10.24 15.36-10.24 20.48v394.24c0 10.24 5.12 15.36 10.24 20.48 5.12 5.12 10.24 10.24 20.48 10.24h174.08c10.24 0 15.36-5.12 20.48-10.24 5.12-5.12 10.24-15.36 10.24-20.48v-394.24z m0 0M235.52-87.03999999999996H61.44c-30.72 0-56.32 25.6-56.32 56.32v394.24c0 30.72 25.6 56.32 56.32 56.32h174.08c30.72 0 56.32-25.6 56.32-56.32v-394.24c0-30.72-25.6-56.32-56.32-56.32z m-174.08 450.56M629.76-30.720000000000027c0-10.24-5.12-15.36-10.24-20.48s-15.36-10.24-20.48-10.24H424.96c-10.24 0-15.36 5.12-20.48 10.24-5.12 5.12-10.24 15.36-10.24 20.48V798.72c0 10.24 5.12 15.36 10.24 20.48 5.12 5.12 10.24 10.24 20.48 10.24h174.08c10.24 0 15.36-5.12 20.48-10.24 5.12-5.12 10.24-15.36 10.24-20.48v-829.44z m0 0M599.04-87.03999999999996H424.96c-30.72 0-56.32 25.6-56.32 56.32V798.72c0 30.72 25.6 56.32 56.32 56.32h174.08c30.72 0 56.32-25.6 56.32-56.32v-829.44c0-30.72-25.6-56.32-56.32-56.32z m363.52 0h-174.08c-30.72 0-56.32 25.6-56.32 56.32V506.88c0 30.72 25.6 56.32 56.32 56.32h174.08c30.72 5.12 61.44-25.6 61.44-56.32v-537.6c0-30.72-30.72-56.32-61.44-56.32zM788.48 506.88v-542.72h174.08V506.88h-174.08z m0 0"  horiz-adv-x="1024" />

    
    <glyph glyph-name="shengji1" unicode="&#58987;" d="M652.898103 95.318554h-279.093368a37.353775 37.353775 0 0 0-34.868396 34.868396v279.166468h-244.298071a38.377166 38.377166 0 0 0-34.722198 20.760219 30.701732 30.701732 0 0 0 7.309937 34.868396l418.201456 418.932449a54.605224 54.605224 0 0 0 55.847913 6.725142l418.713151-418.713152a88.523329 88.523329 0 0 0 7.309937-41.885935c0-13.961978-20.906418-20.906418-34.868397-20.906418h-244.590468v-278.727871a37.353775 37.353775 0 0 0-34.941496-35.087694z m-244.224972 69.809892h209.356576v279.093368a32.967813 32.967813 0 0 0 34.868396 34.868396h195.394598l-335.16058 335.014381-334.721983-334.941282h195.394597a32.967813 32.967813 0 0 0 34.868396-34.868396zM653.2636-16.304173h-279.458865a34.868396 34.868396 0 1 0 0 69.809891h279.458865a34.868396 34.868396 0 0 0 0-69.809891zM653.2636-128h-279.458865a34.868396 34.868396 0 1 0 0 69.809892h279.458865a34.868396 34.868396 0 0 0 0-69.809892z"  horiz-adv-x="1024" />

    
    <glyph glyph-name="jiangli" unicode="&#58918;" d="M804.484561 111.946793c-3.28361 0-6.567221 1.216152-9.242756 3.283611l-71.752969 59.834679-71.752969-59.834679c-4.256532-3.648456-10.215677-4.378147-15.323515-1.945843-5.107838 2.310689-8.269834 7.418527-8.269834 13.012826V421.335867c0 8.026603 6.445606 14.350594 14.350594 14.350594 8.026603 0 14.350594-6.445606 14.350593-14.350594v-264.269834l57.402376 47.91639c5.351069 4.499762 13.012827 4.499762 18.363895 0l57.402376-47.91639V421.335867c0 8.026603 6.445606 14.350594 14.350593 14.350594 8.026603 0 14.350594-6.445606 14.350594-14.350594v-295.03848c0-5.594299-3.161995-10.702138-8.269834-13.012826-1.824228-0.851306-3.891686-1.337767-5.959144-1.337768z m0 0M1030.932067-52.47696H416.045606c-29.066033 0-52.780998 23.593349-52.780998 52.780998V432.40285c0 8.026603 6.445606 14.350594 14.350594 14.350594h691.504038c8.026603 0 14.350594-6.445606 14.350594-14.350594v-432.098812c0.24323-29.066033-23.471734-52.780998-52.537767-52.780998zM392.087411 417.930641v-417.626603c0-13.256057 10.702138-23.958195 23.958195-23.958195h614.886461c13.256057 0 23.958195 10.702138 23.958194 23.958195V417.930641h-662.80285z m677.153444 168.072209c-8.026603 0-14.350594 6.445606-14.350594 14.350594V757.6019c0 12.647981-6.810451 23.350119-18.24228 28.822803s-24.07981 3.891686-33.809026-4.134917L806.552019 622.00095c-6.08076-5.107838-15.2019-4.134917-20.188124 2.067459-5.107838 6.08076-4.134917 15.2019 2.067459 20.188123L984.71829 804.545368c18.24228 14.95867 43.051781 17.877435 64.334442 7.783373 21.404276-10.094062 34.660333-31.133492 34.660332-54.726841v-157.370071c0-7.783373-6.445606-14.228979-14.472209-14.228979z m-691.504038 0c-8.026603 0-14.350594 6.445606-14.350594 14.350594V757.6019c0 23.593349 13.256057 44.632779 34.660333 54.726841 21.404276 10.094062 45.970546 7.053682 64.334442-7.783373l189.354869-154.694537c6.08076-5.107838 7.053682-14.107363 2.067458-20.188123-5.107838-6.08076-14.107363-7.053682-20.188123-2.067459L444.138717 782.289786c-9.729216 8.026603-22.377197 9.485986-33.809026 4.134917-11.431829-5.472684-18.24228-16.174822-18.24228-28.822803v-157.370071c0-7.783373-6.445606-14.228979-14.350594-14.228979z m0 0M804.484561 586.00285c-8.026603 0-14.350594 6.445606-14.350594 14.350594 0 36.727791-29.91734 66.645131-66.645131 66.645131S656.72209 637.20285 656.72209 600.353444c0-8.026603-6.445606-14.350594-14.350594-14.350594-8.026603 0-14.350594 6.445606-14.350593 14.350594 0 52.537767 42.808551 95.346318 95.346318 95.346318s95.346318-42.808551 95.346318-95.346318c0.121615-7.904988-6.32399-14.350594-14.228978-14.350594z m0 0M1079.091686 417.930641H367.885986c-41.227553 0-74.793349 33.565796-74.793349 74.793349v30.890262c0 41.227553 33.565796 74.793349 74.793349 74.793349h711.084085c41.227553 0 74.793349-33.565796 74.793349-74.793349v-30.890262c0.121615-41.227553-33.444181-74.793349-74.671734-74.793349zM367.885986 569.828029c-25.417577 0-46.092162-20.674584-46.092162-46.092162v-30.890261c0-25.417577 20.674584-46.092162 46.092162-46.092162h711.084085c25.417577 0 46.092162 20.674584 46.092162 46.092162v30.890261c0 25.417577-20.674584 46.092162-46.092162 46.092162H367.885986z m0 0M822.726841 111.946793c-3.28361 0-6.567221 1.216152-9.242755 3.283611l-71.75297 59.834679-71.752969-59.834679c-4.256532-3.648456-10.215677-4.378147-15.323515-1.945843-5.107838 2.310689-8.269834 7.418527-8.269834 13.012826V421.335867c0 8.026603 6.445606 14.350594 14.350594 14.350594 8.026603 0 14.350594-6.445606 14.350594-14.350594v-264.269834l57.402375 47.91639c5.351069 4.499762 13.012827 4.499762 18.363896 0l57.402375-47.91639V421.335867c0 8.026603 6.445606 14.350594 14.350594 14.350594 8.026603 0 14.350594-6.445606 14.350593-14.350594v-295.03848c0-5.594299-3.161995-10.702138-8.269833-13.012826-1.824228-0.851306-3.891686-1.337767-5.959145-1.337768z m0 0M1049.174347-52.47696H434.287886c-29.066033 0-52.780998 23.593349-52.780998 52.780998V432.40285c0 8.026603 6.445606 14.350594 14.350594 14.350594h691.504038c8.026603 0 14.350594-6.445606 14.350594-14.350594v-432.098812c0.24323-29.066033-23.471734-52.780998-52.537767-52.780998zM410.329691 417.930641v-417.626603c0-13.256057 10.702138-23.958195 23.958195-23.958195h614.886461c13.256057 0 23.958195 10.702138 23.958195 23.958195V417.930641h-662.802851z m677.153444 168.072209c-8.026603 0-14.350594 6.445606-14.350593 14.350594V757.6019c0 12.647981-6.810451 23.350119-18.242281 28.822803s-24.07981 3.891686-33.809026-4.134917L824.794299 622.00095c-6.08076-5.107838-15.2019-4.134917-20.188123 2.067459-5.107838 6.08076-4.134917 15.2019 2.067458 20.188123L1002.96057 804.545368c18.24228 14.95867 43.051781 17.877435 64.334442 7.783373 21.404276-10.094062 34.660333-31.133492 34.660332-54.726841v-157.370071c0-7.783373-6.445606-14.228979-14.472209-14.228979z m-691.504038 0c-8.026603 0-14.350594 6.445606-14.350593 14.350594V757.6019c0 23.593349 13.256057 44.632779 34.660332 54.726841 21.404276 10.094062 45.970546 7.053682 64.334442-7.783373l189.354869-154.694537c6.08076-5.107838 7.053682-14.107363 2.067459-20.188123-5.107838-6.08076-14.107363-7.053682-20.188124-2.067459L462.380998 782.289786c-9.729216 8.026603-22.377197 9.485986-33.809027 4.134917-11.431829-5.472684-18.24228-16.174822-18.24228-28.822803v-157.370071c0-7.783373-6.445606-14.228979-14.350594-14.228979z m0 0M822.726841 586.00285c-8.026603 0-14.350594 6.445606-14.350594 14.350594 0 36.727791-29.91734 66.645131-66.645131 66.645131S674.964371 637.20285 674.964371 600.353444c0-8.026603-6.445606-14.350594-14.350594-14.350594-8.026603 0-14.350594 6.445606-14.350594 14.350594 0 52.537767 42.808551 95.346318 95.346318 95.346318s95.346318-42.808551 95.346318-95.346318c0.121615-7.904988-6.32399-14.350594-14.228978-14.350594z m0 0M1097.333967 417.930641H386.128266c-41.227553 0-74.793349 33.565796-74.793349 74.793349v30.890262c0 41.227553 33.565796 74.793349 74.793349 74.793349h711.084086c41.227553 0 74.793349-33.565796 74.793349-74.793349v-30.890262c0.121615-41.227553-33.444181-74.793349-74.671734-74.793349zM386.128266 569.828029c-25.417577 0-46.092162-20.674584-46.092161-46.092162v-30.890261c0-25.417577 20.674584-46.092162 46.092161-46.092162h711.084086c25.417577 0 46.092162 20.674584 46.092161 46.092162v30.890261c0 25.417577-20.674584 46.092162-46.092161 46.092162H386.128266z m0 0"  horiz-adv-x="1448" />

    
    <glyph glyph-name="qian" unicode="&#58888;" d="M513-61.8c-60.2 0-118.6 11.8-173.6 35.1-53.1 22.5-100.8 54.6-141.8 95.6-41 41-73.1 88.6-95.6 141.8C78.8 265.6 67 324 67 384.2c0 114.7 43.4 223.6 122.3 306.8 9.5 10 25.3 10.4 35.3 0.9 10-9.5 10.4-25.3 0.9-35.3C155.6 582.7 117 486 117 384.2c0-218.4 177.6-396 396-396s396 177.6 396 396-177.6 396-396 396c-60.3 0-118.2-13.2-172.1-39.2-12.4-6-27.4-0.8-33.4 11.6s-0.8 27.4 11.6 33.4c60.8 29.3 126 44.2 193.9 44.2 60.2 0 118.6-11.8 173.6-35.1 53.1-22.5 100.8-54.6 141.8-95.6 41-41 73.1-88.6 95.6-141.8 23.3-55 35.1-113.4 35.1-173.6 0-60.2-11.8-118.6-35.1-173.6-22.5-53.1-54.6-100.8-95.6-141.8-41-41-88.6-73.1-141.8-95.6-55-23.1-113.4-34.9-173.6-34.9zM513 384.7c-6.4 0-12.8 2.4-17.7 7.3L353.1 534.2c-9.8 9.8-9.8 25.6 0 35.4 9.8 9.8 25.6 9.8 35.4 0L513 445l124.5 124.5c9.8 9.8 25.6 9.8 35.4 0 9.8-9.8 9.8-25.6 0-35.4L530.7 392c-4.9-4.9-11.3-7.3-17.7-7.3zM634.3 384.7H391.7c-13.8 0-25 11.2-25 25s11.2 25 25 25h242.6c13.8 0 25-11.2 25-25s-11.2-25-25-25z m0-116.1H391.7c-13.8 0-25 11.2-25 25s11.2 25 25 25h242.6c13.8 0 25-11.2 25-25s-11.2-25-25-25zM513 134.9c-13.8 0-25 11.2-25 25V409.7c0 13.8 11.2 25 25 25s25-11.2 25-25v-249.8c0-13.8-11.2-25-25-25z"  horiz-adv-x="1024" />

    
    <glyph glyph-name="fenxiang" unicode="&#59135;" d="M808 0H216c-48 0-88 41.6-88 92.8V675.2c0 51.2 40 92.8 88 92.8h353.6c17.6 0 32-14.4 32-32s-14.4-32-32-32H216c-12.8 0-24-12.8-24-28.8v-580.8c0-16 11.2-28.8 24-28.8h592c12.8 0 24 12.8 24 28.8V416c0 17.6 14.4 32 32 32s32-14.4 32-32v-323.2c0-51.2-40-92.8-88-92.8zM416 192c-17.6 0-32 14.4-32 32 0 281.6 230.4 512 512 512 17.6 0 32-14.4 32-32s-14.4-32-32-32c-246.4 0-448-201.6-448-448 0-17.6-14.4-32-32-32z m368 286.4c-4.8 0-11.2 1.6-16 4.8-16 9.6-20.8 28.8-11.2 43.2l96 166.4-166.4 96c-16 9.6-20.8 28.8-11.2 43.2 9.6 16 28.8 20.8 43.2 11.2l193.6-112c16-9.6 20.8-28.8 11.2-43.2l-112-193.6c-4.8-11.2-16-16-27.2-16z"  horiz-adv-x="1024" />

    
    <glyph glyph-name="saoma" unicode="&#59020;" d="M146.432 559.104h-81.92V789.504l40.96 40.96h231.424v-81.92H146.432zM336.896-62.464H105.472l-40.96 40.96V208.896h81.92v-189.44h190.464zM956.416 559.104h-81.92V748.544H684.032v81.92h231.424l40.96-40.96zM915.456-62.464H613.376v81.92h261.12V236.544h81.92v-258.048zM326.656 561.152h61.44v-98.304h-61.44zM415.744 320.512h61.44v-133.12h-61.44zM265.216 320.512h61.44v-114.688h-61.44zM566.272 320.512h61.44v-98.304h-61.44zM706.56 320.512h61.44v-154.624h-61.44zM477.184 598.016h61.44v-135.168h-61.44zM627.712 566.272h61.44v-103.424h-61.44zM10.24 422.912h1003.52v-61.44H10.24z"  horiz-adv-x="1024" />

    
    <glyph glyph-name="yaoqing1" unicode="&#58989;" d="M889.105067 92.501333H558.4896a41.3696 41.3696 0 1 0 0 82.7392h330.5472a41.3696 41.3696 0 0 0 0.068267-82.670933zM723.831467-72.704a41.301333 41.301333 0 0 0-41.3696 41.3696V299.349333a41.3696 41.3696 0 1 0 82.7392 0v-330.615466a41.301333 41.301333 0 0 0-41.3696-41.301334zM432.196267 324.8128a286.037333 286.037333 0 0 0-285.627734 285.627733A285.9008 285.9008 0 0 0 432.128 896a285.9008 285.9008 0 0 0 285.627733-285.627733 286.037333 286.037333 0 0 0-285.627733-285.627734z m0 471.927467a186.5728 186.5728 0 0 1-186.368-186.368 186.5728 186.5728 0 0 1 186.368-186.299734 186.5728 186.5728 0 0 1 186.368 186.368 186.5728 186.5728 0 0 1-186.368 186.299734zM441.070933 424.004267a50.039467 50.039467 0 0 0-2.935466-99.259734H310.613333a176.605867 176.605867 0 0 1-176.401066-176.401066v-108.885334c0-34.4064 27.921067-62.2592 62.327466-62.327466h337.646934a50.039467 50.039467 0 0 0-1.092267-99.464534H196.608A161.792 161.792 0 0 0 34.816 39.3216v108.885333a276.138667 276.138667 0 0 0 275.797333 275.797334"  horiz-adv-x="1024" />

    
    <glyph glyph-name="gonggaopai" unicode="&#58911;" d="M859.354 640.047H717.847L534.921 822.974c-0.409 0.41-0.829 0.802-1.255 1.184a30.918 30.918 0 0 1-3.474 2.694c-0.177 0.119-0.357 0.231-0.536 0.345a31.2 31.2 0 0 1-2.24 1.31c-0.03 0.016-0.063 0.03-0.093 0.046-0.462 0.241-0.93 0.469-1.4 0.685-9.147 4.192-19.913 3.702-28.678-1.478a31.073 31.073 0 0 1-6.167-4.787l-0.009-0.01-182.917-182.916H163.887c-55.781 0-101-45.219-101-101v-501.341c0-55.78 45.219-101 101-101h695.468c55.78 0 101 45.22 101 101V539.047c-0.001 55.781-45.22 101-101.001 101zM513 757.21l117.163-117.163H395.837L513 757.21z m383.174-710.432c0-24.301-19.699-44-44-44H172c-24.301 0-44 19.699-44 44V533c0 24.301 19.699 44 44 44h73.105l-43.714-43.714c-12.107-12.107-12.107-31.735 0-43.842s31.736-12.107 43.843 0L332.79 577h360.419l87.557-87.557c12.106-12.106 31.735-12.106 43.842 0 12.107 12.107 12.107 31.736 0.001 43.842L780.895 577h71.279c24.301 0 44-19.699 44-44v-486.222zM737.072 384h-449c-17.686 0-32.023-14.337-32.023-32.023 0-17.686 14.337-32.022 32.023-32.022h449c17.687 0 32.023 14.337 32.023 32.022 0.001 17.686-14.336 32.023-32.023 32.023zM737.072 192.246h-449c-17.686 0-32.023-14.337-32.023-32.023 0-17.686 14.337-32.022 32.023-32.022h449c17.687 0 32.023 14.337 32.023 32.022 0.001 17.686-14.336 32.023-32.023 32.023z"  horiz-adv-x="1024" />

    
    <glyph glyph-name="el-icon-custom-order" unicode="&#58881;" d="M826.3802209-83.19440578000001H197.6197791C125.88892084-83.19440578000001 67.02843186-27.851817770000025 67.02843186 40.79015184000002V727.20984816c0 68.64196964 58.60308158 123.81295271 130.59134724 123.8129527h111.54320064v-51.48147721h-111.54320064c-43.58765071 0-79.10987001-32.43333065-79.10986999-72.33147549v-686.41969632c0-39.89814483 35.43641682-72.33147549 79.10986999-72.33147549h628.84624427c43.58765071 0 79.10987001 32.43333065 79.10987 72.33147549V727.20984816c0 39.89814483-35.43641682 72.33147549-79.10987 72.33147549h-103.992584v51.48147721h103.90678153C898.11107916 851.19440578 956.97156814 795.85181777 956.97156814 727.20984816v-686.41969632c0-68.64196964-58.86048895-123.98455764-130.59134724-123.98455762zM598.91789404 799.71292858H437.35185803a25.7407386 25.7407386 0 1 0 0 51.4814772h161.56603601a25.7407386 25.7407386 0 0 0 0-51.4814772zM769.40738611 512.7036930300001H276.4722417a25.7407386 25.7407386 0 0 0 0 51.48147725H769.40738611a25.7407386 25.7407386 0 0 0 0-51.48147725zM769.40738611 343.67284285000005H276.4722417a25.7407386 25.7407386 0 1 0 0 51.48147721H769.40738611a25.7407386 25.7407386 0 1 0 0-51.48147721zM769.40738611 174.72779508999997H276.4722417a25.7407386 25.7407386 0 0 0 0 51.48147722H769.40738611a25.7407386 25.7407386 0 0 0 0-51.48147722z"  horiz-adv-x="1024" />

    
    <glyph glyph-name="Icon-tishi" unicode="&#58895;" d="M512 718c45.1 0 88.8-8.8 130-26.2 39.8-16.8 75.5-40.9 106.2-71.6 30.7-30.7 54.8-66.4 71.6-106.2 17.4-41.1 26.2-84.9 26.2-130s-8.8-88.8-26.2-130c-16.8-39.8-40.9-75.5-71.6-106.2-30.7-30.7-66.4-54.8-106.2-71.6-41.1-17.4-84.9-26.2-130-26.2s-88.8 8.8-130 26.2c-39.8 16.8-75.5 40.9-106.2 71.6-30.7 30.7-54.8 66.4-71.6 106.2-17.4 41.1-26.2 84.9-26.2 130s8.8 88.8 26.2 130c16.8 39.8 40.9 75.5 71.6 106.2 30.7 30.7 66.4 54.8 106.2 71.6 41.2 17.4 84.9 26.2 130 26.2m0 50c-212.1 0-384-171.9-384-384s171.9-384 384-384 384 171.9 384 384-171.9 384-384 384zM470.8 183.7c-1.7 24.1 12.2 42.6 32.7 46.6 25.5 5 49-15 49.7-41 0.7-24.9-15.1-44.4-40.2-44.9-22.2-0.6-40.6 17-42.2 39.3z m16.7 127.8l-8.1 278.6c-0.5 18.4 14.2 33.6 32.6 33.6 18.4 0 33.2-15.2 32.6-33.6l-8.1-278.6c-0.4-13.2-11.2-23.8-24.5-23.8-13.3 0.1-24.1 10.6-24.5 23.8z"  horiz-adv-x="1024" />

    
    <glyph glyph-name="weibiaoti--" unicode="&#58914;" d="M897.4 731.8v-40.9 16.2c-0.8 13.8-12.2 24.7-26.2 24.7h26.2zM121.6 731.8h40.9-16.2c-13.8-0.8-24.7-12.2-24.7-26.2v26.2zM121.7 29.3v40.9V54c0.8-13.8 12.2-24.7 26.2-24.7h-26.2zM897.2 29.4h-40.9 16.2c13.8 0.8 24.7 12.2 24.7 26.2v-26.2zM263.8 85.6c22.6 0 41 18.3 41 41V343c0 22.6-18.3 41-41 41-22.6 0-41-18.3-41-41v-216.5c0.1-22.6 18.4-40.9 41-40.9zM757.3 85.6c22.6 0 41 18.3 41 41V453.1c0 22.6-18.3 41-41 41-22.6 0-41-18.3-41-41v-326.5c0.1-22.7 18.4-41 41-41zM510.6 85.6c22.6 0 41 18.3 41 41V594.7c0 22.6-18.3 41-41 41-22.6 0-41-18.3-41-41v-468.2c0-22.6 18.4-40.9 41-40.9zM979 8.9V751.5c-2.9 33.8-30.5 60.4-64.6 62H103.7c-34.4-2.1-61.9-29.6-63.8-64V12c1.8-34.4 29.1-62.1 63.4-64.4h815.8c31.8 3.7 56.9 29.3 59.9 61.3z m-857.2 20.6V731.6h775.3v-702.1H121.8z"  horiz-adv-x="1024" />

    
    <glyph glyph-name="keshengji" unicode="&#59007;" d="M0 439.215686L455.111111 896h567.215686L0-128zM115.45098 325.437908l71.947713 71.947713 63.581699-63.581699-58.562091-58.562092 11.712418-11.712418-13.385621-13.385621-75.294118 75.294117zM61.908497 343.843137l160.627451 160.627451 11.712418-11.712418-26.771242-26.771242 108.75817-108.75817c15.058824-15.058824 15.058824-28.444444 0-43.503268l-30.117647-30.117647c-5.019608 5.019608-11.712418 8.366013-16.732026 11.712418 13.385621 11.712418 23.424837 20.078431 28.444444 26.771242 8.366013 8.366013 8.366013 16.732026-1.673202 25.098039l-105.411765 105.411765-118.797386-118.797385-10.039215 10.039215z m123.816993 30.117647L140.54902 327.111111l40.156862-40.156863 45.176471 45.176471-40.156863 41.830065z m93.699347 85.333334l41.830065 41.830065-38.48366 38.48366c-10.039216-11.712418-21.751634-25.098039-33.464052-40.156863-5.019608 3.346405-8.366013 6.69281-15.058824 10.039216 31.79085 36.810458 56.888889 68.601307 76.96732 97.045752l15.058824-10.039216c-10.039216-13.385621-21.751634-28.444444-33.464052-43.503268l40.156862-40.156863 51.869281 51.869281-63.581699 63.5817 13.385621 13.385621 63.581699-63.5817 38.48366 38.48366 13.385621-13.385621-38.48366-38.48366 80.313726-80.313725-13.385621-13.385621-80.313726 80.313725-51.869281-51.869281c21.751634-23.424837 35.137255-41.830065 40.156863-56.888888 6.69281-18.405229 5.019608-40.156863 0-68.601308-5.019608 0-11.712418 1.673203-20.078431 1.673203 6.69281 26.771242 6.69281 46.849673 1.673202 61.908497-3.346405 11.712418-15.058824 28.444444-35.137255 48.522875L291.137255 444.235294l-11.712418 15.058824z m254.326797 239.267974c33.464052-36.810458 51.869281-76.96732 53.542484-118.797386-8.366013 0-15.058824 0-20.078432-1.673203 0 28.444444-8.366013 53.542484-21.751634 75.294118-11.712418 20.078431-36.810458 46.849673-73.620915 85.333333l-15.058823-15.058823-11.712419 11.712418 80.313726 80.313726 11.712418-11.712419 16.732026-48.522876 26.771242 26.771242 11.712418-11.712418c13.385621-25.098039 21.751634-51.869281 25.09804-76.96732 21.751634 0 43.503268 3.346405 65.254902 10.039215 0-6.69281 0-13.385621 1.673202-23.424836-23.424837-5.019608-45.176471-8.366013-65.254902-6.692811 1.673203-23.424837-1.673203-46.849673-8.366013-70.27451-6.69281 1.673203-13.385621 1.673203-20.078431 1.673203 6.69281 25.098039 10.039216 48.522876 8.366013 70.27451-18.405229 3.346405-41.830065 11.712418-65.254902 23.424837z m8.366013 43.503267l-16.732026 48.522876L485.228758 750.431373l21.751634-21.751634c36.810458-20.078431 68.601307-30.117647 95.372549-33.464053-3.346405 21.751634-10.039216 41.830065-21.751634 63.5817l-26.771242-26.771242-11.712418 10.039215z m-51.869281-120.470588c10.039216 11.712418 20.078431 25.098039 30.117647 38.48366 3.346405-3.346405 6.69281-8.366013 10.039216-11.712418C515.346405 628.287582 501.960784 611.555556 490.248366 594.823529l-15.058824 8.366013c0 11.712418-1.673203 30.117647-6.69281 55.215687-8.366013-8.366013-15.058824-18.405229-23.424837-28.444445l-13.38562 6.692811c-1.673203 18.405229-8.366013 46.849673-20.078432 83.66013l18.405229 6.692811c8.366013-30.117647 13.385621-55.215686 16.732026-75.294118 5.019608 6.69281 11.712418 13.385621 20.078431 21.751634-1.673203 10.039216-5.019608 21.751634-8.366013 33.464053l16.732026 6.69281c6.69281-40.156863 11.712418-71.947712 15.058824-92.026144z m15.058824-60.235294c13.385621 21.751634 26.771242 43.503268 38.48366 65.254902 3.346405-3.346405 8.366013-6.69281 11.712418-10.039216-13.385621-23.424837-25.098039-43.503268-35.137255-61.908496l-15.058823 6.69281z"  horiz-adv-x="1025" />

    
    <glyph glyph-name="xiaji" unicode="&#58913;" d="M959.598 202.6h-38.642v103.086c0 51.542-45.08 96.642-96.604 96.642H540.982v96.644h70.842c38.64 0 64.402 25.77 64.402 64.428V769.572c0 38.656-25.76 64.428-64.402 64.428H405.736c-38.64 0-64.402-25.772-64.402-64.428V563.4c0-38.658 25.76-64.428 64.4-64.428h70.844v-96.644H199.648c-51.522 0-96.604-45.1-96.604-96.642V202.6h-38.64C25.76 202.6 0 170.386 0 138.172v-141.744C0-42.228 32.2-68 64.402-68h141.686c38.64 0 64.402 32.214 64.402 64.428v141.744c0 38.656-32.2 64.428-64.402 64.428h-38.64v103.086c0 19.328 12.88 32.214 32.2 32.214h276.93v-135.3h-38.64c-38.642 0-64.404-25.772-64.404-64.428v-141.744c0-38.656 25.76-64.428 64.404-64.428h141.684c38.642 0 64.404 25.772 64.404 64.428v141.744c0 38.656-25.76 64.428-64.404 64.428h-38.64v135.3h283.37c19.32 0 32.2-12.886 32.2-32.214V202.6h-38.64c-38.64 0-64.402-32.214-64.402-64.428v-141.744c0-38.656 32.2-64.428 64.402-64.428h141.686c38.64 0 64.402 32.214 64.402 64.428v141.744c0 38.656-32.2 64.428-64.402 64.428zM405.736 769.572h206.088V563.4H405.736V769.572z m-199.648-773.144H64.402v141.744h141.686v-141.744z m373.534 0H437.94v141.744h141.684v-141.744z m379.976 0h-141.686v141.744h141.686v-141.744z"  horiz-adv-x="1024" />

    
    <glyph glyph-name="soushuo" unicode="&#58882;" d="M222.6944 673.2032A323.1488 323.1488 0 0 1 133.6832 384c19.2512 87.3728 64.512 172.7488 135.0144 243.3024C339.2512 697.8815999999999 424.6272 743.1168 512 762.3679999999999c-101.632 19.1488-210.688-10.5216-289.3056-89.1648zM989.44 73.88160000000005l-121.7024 121.7024a118.016 118.016 0 0 1-92.8 34.1248c114.4576 165.5552 97.92 394.3936-49.4848 541.824-165.9392 165.9904-435.0464 165.9904-601.0368 0-165.9392-165.9904-165.9392-435.1232 0-601.1136 147.4048-147.4304 376.064-163.84 541.7216-49.3824-2.56-33.28 8.8576-67.5328 34.1248-92.8l121.7024-121.728c46.08-45.9776 121.3696-45.9776 167.3472 0 46.208 45.9776 46.208 121.2928 0.128 167.3728zM676.096 219.904c-138.6752-138.6752-363.392-138.6752-502.016 0-138.6752 138.6752-138.6752 363.4432 0 502.1184 138.624 138.6752 363.3408 138.6752 502.016 0 138.6496-138.5728 138.6496-363.4432 0-502.1184z"  horiz-adv-x="1024" />

    
    <glyph glyph-name="shezhi" unicode="&#59038;" d="M825.312 329.184a127.04 127.04 0 0 1-91.616-62.624A127.232 127.232 0 0 1 725.248 156a318.976 318.976 0 0 0-113.216-65.472A127.072 127.072 0 0 1 512 138.56a127.2 127.2 0 0 1-100.064-48A319.232 319.232 0 0 0 298.72 156a127.232 127.232 0 0 1-8.416 110.56 127.04 127.04 0 0 1-91.648 62.624 323.232 323.232 0 0 0 0 130.784 127.104 127.104 0 0 1 91.648 62.592 127.296 127.296 0 0 1 8.416 110.592 318.976 318.976 0 0 0 113.216 65.472A127.232 127.232 0 0 1 512 650.56c39.712 0 76.064 17.92 100.032 48.064a318.72 318.72 0 0 0 113.216-65.472 127.328 127.328 0 0 1 8.448-110.592 127.104 127.104 0 0 1 91.616-62.592 321.536 321.536 0 0 0 0-130.784m56.16 170.304a31.776 31.776 0 0 1-32.832 23.2 63.584 63.584 0 0 0-59.52 31.872 63.744 63.744 0 0 0 2.112 67.52 32 32 0 0 1-3.68 39.936 383.392 383.392 0 0 1-181.696 104.992 31.968 31.968 0 0 1-36.48-16.832A63.68 63.68 0 0 0 512 714.56a63.68 63.68 0 0 0-57.376 35.616 32 32 0 0 1-36.48 16.832 383.264 383.264 0 0 1-181.696-104.96 32 32 0 0 1-3.712-40 63.68 63.68 0 0 0 2.112-67.488 63.68 63.68 0 0 0-59.52-31.872 31.52 31.52 0 0 1-32.8-23.2A383.136 383.136 0 0 1 128 394.56c0-35.648 4.864-70.944 14.528-104.896a31.904 31.904 0 0 1 32.8-23.2 64.032 64.032 0 0 0 59.52-31.904c12.256-21.184 11.456-47.04-2.112-67.456a32 32 0 0 1 3.712-39.968 382.88 382.88 0 0 1 181.696-104.96 31.936 31.936 0 0 1 36.48 16.8A63.648 63.648 0 0 0 512 74.56c24.512 0 46.496-13.632 57.376-35.584a32 32 0 0 1 36.48-16.832 383.04 383.04 0 0 1 181.696 104.992 32 32 0 0 1 3.68 40 63.68 63.68 0 0 0-2.112 67.424 63.136 63.136 0 0 0 59.52 31.904c15.04-0.896 28.704 8.736 32.832 23.2A384.64 384.64 0 0 1 896 394.56c0 35.648-4.896 70.944-14.528 104.96M512 298.56c-52.928 0-96 43.104-96 96 0 52.96 43.072 96 96 96s96-43.04 96-96c0-52.896-43.072-96-96-96m0 256c-88.224 0-160-71.744-160-160 0-88.224 71.776-160 160-160s160 71.808 160 160c0 88.256-71.776 160-160 160"  horiz-adv-x="1024" />

    
    <glyph glyph-name="icon_banner_maihuo" unicode="&#58961;" d="M451.7 597.3h81.9v-170.7c0-23.6 19.1-42.7 42.7-42.7S619 403 619 426.6V597.3h81.4c12 0 23.5 5.1 31.6 14 15.9 17.4 14.6 44.4-2.9 60.3l-124.3 113c-16.3 14.8-41.1 14.8-57.4 0L423 671.6c-8.9-8.1-14-19.5-14-31.6 0-23.6 19.1-42.7 42.7-42.7zM937.2 549.4c-6.9 1.8-14.1 2.7-21.2 2.7h-44.1c-23.6 0-42.7-19.1-42.7-42.7s19.1-42.7 42.7-42.7H916l-69-268.6c-4.8-18.9-21.8-32.1-41.3-32.1h-405c-18.6 0-34.9 11.9-40.6 29.5L231 594.1c-17.2 53-66.1 88.5-121.8 88.5H42.7C19.1 682.7 0 663.6 0 640s19.1-42.7 42.7-42.7h66.6c18.6 0 34.9-11.9 40.6-29.5L279 169.3c17.2-53 66.1-88.5 121.8-88.5h405c58.5 0 109.4 39.5 124 96.2l69 268.6c11.6 45.5-16 92.1-61.6 103.8zM405.3-21.3m-64 0a64 64 0 1 1 128 0 64 64 0 1 1-128 0ZM832-21.3m-64 0a64 64 0 1 1 128 0 64 64 0 1 1-128 0Z"  horiz-adv-x="1024" />

    
    <glyph glyph-name="kucun" unicode="&#58941;" d="M431.763879 375.724526H0v431.763879h431.763879z m-359.803232 71.960646h287.842586v287.842586H71.960647zM935.488405-128H503.724526v431.763879h431.763879z m-359.803233 71.960647h287.842586v287.842586H575.685172zM692.981026 287.932537L415.21293 618.231904 746.231904 896l277.768096-331.018974zM516.677442 608.157414l184.938862-215.88194 220.919184 184.938862-184.938861 217.321152zM431.763879-128H0v431.763879h431.763879z m-359.803232 71.960647h287.842586v287.842586H71.960647z"  horiz-adv-x="1024" />

    


  </font>
</defs>
</svg>
